Coordinates
version=1
nRows=26
nColumns=30
inDegrees=yes

Units are S.I. units (second, meters, Newtons, ...)
Angles are in degrees.

endheader
time	floatyaw	floatroll	floatpitch	floatx	floaty	floatz	pro_sup_l	deviation_l	flexion_l	cmc_flexion_l	cmc_abduction_l	mp_flexion_l	ip_flexion_l	2mcp_flexion_l	2mcp_abduction_l	2pm_flexion_l	2md_flexion_l	3mcp_flexion_l	3mcp_abduction_l	3pm_flexion_l	3md_flexion_l	4mcp_flexion_l	4mcp_abduction_l	4pm_flexion_l	4md_flexion_l	5mcp_flexion_l	5mcp_abduction_l	5pm_flexion_l	5md_flexion_l
-1.495000	-1.089067	-4.156866	93.821839	-0.010096	-0.265321	-0.003494	89.044984	1.040803	-2.140469	23.866662	3.408164	-17.914376	-28.508265	20.521006	5.637763	30.460066	20.225713	10.040587	4.312951	33.752061	21.659289	-0.860516	-3.915555	50.578591	33.026971	-20.260718	-7.292687	60.156769	49.755248
-1.485000	-1.089067	-4.156866	93.821839	-0.010075	-0.265308	-0.003531	89.049978	1.052998	-2.136672	23.919035	3.386032	-17.928711	-28.556200	20.510091	5.647390	30.500767	20.214843	10.039114	4.308655	33.779265	21.651071	-0.878503	-3.910732	50.632752	33.031180	-20.285544	-7.315510	60.168823	49.832588
-1.475000	-1.089067	-4.156866	93.821839	-0.010055	-0.265300	-0.003557	89.050338	1.059515	-2.134385	23.964023	3.375708	-17.948950	-28.595031	20.491413	5.657351	30.542981	20.221266	10.037637	4.306744	33.802023	21.649099	-0.895896	-3.908586	50.685041	33.029161	-20.326943	-7.345158	60.187444	49.909348
-1.465000	-1.089067	-4.156866	93.821839	-0.010040	-0.265300	-0.003565	89.046575	1.058220	-2.133653	23.995392	3.377239	-17.972144	-28.620590	20.465370	5.667006	30.582882	20.241037	10.037503	4.306371	33.816740	21.649808	-0.910691	-3.908070	50.725503	33.019530	-20.378906	-7.378141	60.201333	49.971085
-1.455000	-1.089067	-4.156866	93.821839	-0.010032	-0.265310	-0.003553	89.042596	1.049178	-2.136915	24.014927	3.388135	-17.995335	-28.640254	20.435793	5.677827	30.618829	20.268534	10.041733	4.307246	33.822873	21.650069	-0.916629	-3.907700	50.746166	33.003681	-20.429326	-7.410266	60.203976	50.007867
-1.445000	-1.089067	-4.156866	93.821839	-0.010031	-0.265335	-0.003523	89.043121	1.034720	-2.147549	24.029045	3.404498	-18.015202	-28.665863	20.408353	5.691801	30.650698	20.298700	10.052741	4.309783	33.822589	21.649146	-0.907422	-3.906487	50.744827	32.985586	-20.465150	-7.437499	60.197719	50.015111
-1.435000	-1.089067	-4.156866	93.821839	-0.010032	-0.265374	-0.003482	89.050047	1.018399	-2.167058	24.042311	3.422942	-18.027983	-28.703155	20.387752	5.709084	30.678469	20.328156	10.070316	4.314445	33.818656	21.648438	-0.882241	-3.904499	50.726557	32.970021	-20.478828	-7.457018	60.191842	49.993038
-1.425000	-1.089067	-4.156866	93.821839	-0.010035	-0.265423	-0.003441	89.060726	1.003428	-2.193063	24.053584	3.441834	-18.030697	-28.746048	20.375868	5.726922	30.700819	20.354704	10.091615	4.320975	33.811928	21.649126	-0.847903	-3.902746	50.701213	32.960219	-20.471736	-7.467747	60.196423	49.945808
-1.415000	-1.089067	-4.156866	93.821839	-0.010038	-0.265473	-0.003406	89.069618	0.991529	-2.219721	24.057725	3.460930	-18.023227	-28.779968	20.371866	5.740810	30.714669	20.376285	10.113187	4.328178	33.800147	21.649763	-0.815690	-3.902507	50.678018	32.956346	-20.452586	-7.470152	60.216424	49.880548
-1.405000	-1.089067	-4.156866	93.821839	-0.010042	-0.265515	-0.003383	89.071935	0.982719	-2.240420	24.050751	3.480172	-18.009512	-28.791492	20.373651	5.747049	30.716218	20.390961	10.133415	4.334401	33.778881	21.646208	-0.795063	-3.904592	50.660806	32.955762	-20.432305	-7.465688	60.249638	49.805918
-1.395000	-1.089067	-4.156866	93.821839	-0.010049	-0.265541	-0.003370	89.066405	0.975928	-2.251018	24.033701	3.499135	-17.996385	-28.777169	20.379276	5.744823	30.703069	20.398191	10.153509	4.338333	33.743955	21.634279	-0.788886	-3.908966	50.647245	32.954971	-20.418861	-7.456378	60.288786	49.730228
-1.385000	-1.089067	-4.156866	93.821839	-0.010059	-0.265548	-0.003365	89.055380	0.969922	-2.251597	24.012178	3.517521	-17.990277	-28.745508	20.387369	5.736446	30.676213	20.399873	10.176378	4.339604	33.693963	21.612985	-0.793282	-3.914826	50.632267	32.952067	-20.414703	-7.444622	60.325222	49.659929
-1.375000	-1.089067	-4.156866	93.821839	-0.010072	-0.265542	-0.003361	89.042892	0.964005	-2.245787	23.992342	3.535781	-17.993700	-28.711229	20.396764	5.725820	30.640384	20.399629	10.204262	4.338878	33.631493	21.585571	-0.801410	-3.920855	50.612717	32.948079	-20.417341	-7.432993	60.351641	49.599338
-1.365000	-1.089067	-4.156866	93.821839	-0.010087	-0.265529	-0.003356	89.032464	0.958239	-2.238281	23.976592	3.554827	-18.003692	-28.685961	20.406265	5.716267	30.602040	20.400530	10.236805	4.337454	33.562507	21.557699	-0.807894	-3.925422	50.589681	32.946333	-20.422030	-7.423768	60.363340	49.551493
-1.355000	-1.089067	-4.156866	93.821839	-0.010102	-0.265516	-0.003348	89.026031	0.953222	-2.232231	23.961842	3.574898	-18.013204	-28.671365	20.415199	5.709020	30.565733	20.403058	10.270842	4.336588	33.494287	21.534392	-0.811012	-3.926805	50.567262	32.950316	-20.424898	-7.418250	60.358889	49.519223
-1.345000	-1.089067	-4.156866	93.821839	-0.010117	-0.265504	-0.003336	89.024040	0.949644	-2.228197	23.941299	3.594708	-18.014711	-28.658870	20.424490	5.703129	30.531213	20.405021	10.302099	4.336902	33.432978	21.517954	-0.811881	-3.923653	50.549285	32.961433	-20.424772	-7.416242	60.340495	49.505344
-1.335000	-1.089067	-4.156866	93.821839	-0.010132	-0.265495	-0.003322	89.026017	0.947903	-2.225192	23.908723	3.611831	-18.004225	-28.636073	20.437131	5.696656	30.493633	20.403536	10.327815	4.338170	33.381812	21.507895	-0.811894	-3.915673	50.536424	32.978052	-20.422630	-7.416102	60.313189	49.511623
-1.325000	-1.089067	-4.156866	93.821839	-0.010147	-0.265487	-0.003306	89.030988	0.947952	-2.222704	23.862787	3.623948	-17.983637	-28.595650	20.456995	5.688302	30.447278	20.397584	10.348444	4.339573	33.340751	21.502374	-0.810559	-3.904125	50.525539	32.996365	-20.419308	-7.415477	60.282321	49.537301
-1.315000	-1.089067	-4.156866	93.821839	-0.010163	-0.265484	-0.003286	89.037682	0.949461	-2.221813	23.808898	3.629752	-17.959999	-28.540833	20.486042	5.678391	30.390634	20.389198	10.366859	4.340287	33.307811	21.499922	-0.805480	-3.891587	50.511519	33.012433	-20.413571	-7.412377	60.250370	49.578637
-1.305000	-1.089067	-4.156866	93.821839	-0.010177	-0.265488	-0.003264	89.044671	0.952165	-2.224372	23.757164	3.628898	-17.941973	-28.484021	20.521656	5.668602	30.329317	20.382317	10.385210	4.340007	33.281566	21.500401	-0.794480	-3.880898	50.490537	33.024180	-20.402357	-7.406056	60.215224	49.630235
-1.295000	-1.089067	-4.156866	93.821839	-0.010190	-0.265502	-0.003240	89.050513	0.956120	-2.231095	23.717570	3.621669	-17.935426	-28.440018	20.556553	5.660719	30.274513	20.380124	10.401813	4.339073	33.263278	21.504934	-0.778059	-3.873828	50.462770	33.032216	-20.383066	-7.397391	60.171430	49.687206
-1.285000	-1.089067	-4.156866	93.821839	-0.010198	-0.265524	-0.003219	89.053954	0.961672	-2.240358	23.695398	3.609063	-17.940746	-28.418713	20.582138	5.655299	30.237607	20.382667	10.410819	4.338142	33.256967	21.515046	-0.760098	-3.870336	50.433013	33.039159	-20.355945	-7.388752	60.114002	49.746373
-1.275000	-1.089067	-4.156866	93.821839	-0.010202	-0.265548	-0.003204	89.054295	0.969206	-2.248838	23.689790	3.593117	-17.953417	-28.421522	20.593407	5.651229	30.224533	20.386360	10.405437	4.337758	33.267159	21.531493	-0.746103	-3.868893	50.408997	33.047995	-20.324630	-7.383436	60.042846	49.805707
-1.265000	-1.089067	-4.156866	93.821839	-0.010201	-0.265565	-0.003201	89.051781	0.978935	-2.253534	23.696086	3.576925	-17.967319	-28.442703	20.591876	5.646520	30.233814	20.385713	10.382525	4.338196	33.296118	21.553418	-0.740234	-3.867628	50.398604	33.060493	-20.294321	-7.384721	59.965452	49.862926
-1.255000	-1.089067	-4.156866	93.821839	-0.010193	-0.265571	-0.003213	89.047566	0.990900	-2.253554	23.709721	3.564261	-17.978465	-28.473442	20.584249	5.639762	30.259660	20.376376	10.345000	4.339617	33.343002	21.578463	-0.743272	-3.865510	50.407680	33.076642	-20.268874	-7.394737	59.896138	49.914809
-1.245000	-1.089067	-4.156866	93.821839	-0.010176	-0.265562	-0.003242	89.043108	1.005154	-2.250212	23.728552	3.558846	-17.986698	-28.505624	20.577550	5.631145	30.297680	20.357746	10.300031	4.342167	33.405690	21.603938	-0.753038	-3.862834	50.439387	33.095114	-20.248971	-7.413530	59.851788	49.957819
